# xmcd CD database file
#
# Track frame offsets:
#	150
#	15260
#	27824
#	40307
#	52794
#	70021
#	84836
#	111194
#	120532
#	137216
#	147501
#	160134
#
# Disc length: 2306 seconds
#
# Revision: 0
# Processed by: cddbd v1.5.1PL0 Copyright (c) Steve Scherf et al.
# Submitted via: CDex 1.51
#
DISCID=9109000c
DTITLE=Various Artist - Dream - Jazz style music
DYEAR=2003
DGENRE=Jazz
TTITLE0=I said it before
TTITLE1=Blues in b
TTITLE2=Coltrane turnaround changes
TTITLE3=Chording
TTITLE4=rythm change voicing
TTITLE5=Licks
TTITLE6=Blues
TTITLE7=Blues for Dr. John
TTITLE8=Danny boy
TTITLE9=Blues in F
TTITLE10=Trieste
TTITLE11=Springs in here
EXTD=YEAR: 2003
EXTT0=
EXTT1=
EXTT2=
EXTT3=
EXTT4=
EXTT5=
EXTT6=
EXTT7=
EXTT8=
EXTT9=
EXTT10=
EXTT11=
PLAYORDER=
